#!OML:ASF F:\VICON\USERDATA\INSTALL\rory3\rory3.ASF
:FULLY-SPECIFIED
:DEGREES
2250
root 0.388958 13.2544 -8.6423 20.5509 -2.01773 -2.5218
lowerback 27.4475 0.557048 -10.7709
upperback 6.16887 -2.74425 -4.93092
thorax -7.98521 -1.12536 1.5529
lowerneck -24.2655 -6.41882 -14.7733
upperneck 9.80726 -7.11471 18.8127
head 8.32494 -2.22457 7.9406
rclavicle -1.74931e-014 -5.725e-014
rhumerus -8.06819 -16.3154 -68.2278
rradius 121.285
rwrist -13.9873
rhand -29.9778 24.3398
rfingers 7.12502
rthumb -3.296 -5.61446
lclavicle -1.74931e-014 -5.725e-014
lhumerus 18.4606 -19.7287 84.8489
lradius 119.401
lwrist -5.89808
lhand -12.5038 8.28416
lfingers 7.12502
lthumb 13.5715 37.8218
rfemur -66.806 -26.0857 11.1623
rtibia 93.4004
rfoot -29.5401 8.83986
rtoes -30.2771
lfemur -62.6763 21.9033 10.5672
ltibia 76.99
lfoot -19.2966 -23.0564
ltoes -35.9726
2251
root 0.422851 13.152 -8.63896 20.3861 -1.15515 -2.73757
lowerback 27.6619 0.550538 -11.3527
upperback 6.50088 -2.92684 -5.22392
thorax -7.67498 -1.22164 1.60893
lowerneck -24.2111 -6.449 -14.7837
upperneck 9.44399 -7.19907 19.2841
head 8.24322 -2.232 8.09386
rclavicle -3.33958e-014 -9.54166e-015
rhumerus -9.31089 -16.4794 -68.7189
rradius 120.82
rwrist -14.5394
rhand -29.8382 23.9427
rfingers 7.12502
rthumb -3.16118 -6.01357
lclavicle -3.33958e-014 -9.54166e-015
lhumerus 19.5731 -20.5313 85.163
lradius 118.376
lwrist -5.742
lhand -12.3009 7.67077
lfingers 7.12502
lthumb 13.767 37.1953
rfemur -66.7811 -27.035 11.0217
rtibia 94.4509
rfoot -29.4146 9.61007
rtoes -29.9965
lfemur -63.2587 21.9014 10.9203
ltibia 77.6167
lfoot -20.5302 -23.9493
ltoes -36.2239
2252
root 0.454402 13.0634 -8.63223 20.1829 -0.226757 -2.97004
lowerback 27.9831 0.507345 -11.8199
upperback 6.84531 -3.13941 -5.53721
thorax -7.40541 -1.3329 1.58816
lowerneck -24.4856 -6.56443 -14.9407
upperneck 9.25348 -7.36631 19.9408
head 8.30797 -2.25011 8.33942
rclavicle -1.74931e-014 -7.95139e-015
rhumerus -10.3985 -16.524 -69.3982
rradius 120.214
rwrist -14.529
rhand -29.7676 23.9131
rfingers 7.12502
rthumb -3.09299 -6.04425
lclavicle -1.74931e-014 -7.95139e-015
lhumerus 20.8334 -21.3015 85.4118
lradius 117.194
lwrist -5.45451
lhand -12.0739 7.42877
lfingers 7.12502
lthumb 13.9858 36.9383
rfemur -66.5265 -27.8801 10.8535
rtibia 95.3333
rfoot -29.3752 10.1358
rtoes -30.1706
lfemur -63.7719 21.8717 11.1866
ltibia 78.1178
lfoot -21.8659 -24.5647
ltoes -36.2625
2253
root 0.486843 12.9765 -8.6149 20.2851 0.60148 -3.48577
lowerback 27.9308 0.436506 -12.11
upperback 6.88599 -3.30793 -5.75044
thorax -7.30866 -1.41143 1.56177
lowerneck -23.951 -6.57878 -15.3218
upperneck 8.85387 -7.40846 20.6887
head 8.16149 -2.25655 8.66767
rclavicle -1.90833e-014 -2.54444e-014
rhumerus -11.7316 -16.2693 -70.0363
rradius 119.429
rwrist -14.1851
rhand -30.0109 24.5268
rfingers 7.12502
rthumb -3.32798 -5.42693
lclavicle -1.90833e-014 -2.54444e-014
lhumerus 21.5091 -22.0528 85.8503
lradius 116.111
lwrist -5.09951
lhand -11.8331 7.69077
lfingers 7.12502
lthumb 14.2178 37.1841
rfemur -66.6009 -28.3527 11.1221
rtibia 96.0656
rfoot -29.5306 10.2422
rtoes -31.221
lfemur -64.5099 22.2145 11.5355
ltibia 78.5796
lfoot -23.009 -25.0337
ltoes -36.3488
2254
root 0.518664 12.9007 -8.59486 20.3648 1.53413 -3.97353
lowerback 27.9854 0.380697 -12.4076
upperback 6.88062 -3.47458 -5.8897
thorax -7.3112 -1.48177 1.62342
lowerneck -23.3213 -6.61513 -15.6256
upperneck 8.35281 -7.48236 21.3178
head 7.96336 -2.29532 8.92782
rclavicle 2.8625e-014 2.22639e-014
rhumerus -13.0883 -16.1405 -70.5585
rradius 118.645
rwrist -13.6021
rhand -30.4667 25.1385
rfingers 7.12502
rthumb -3.76811 -4.80797
lclavicle 2.8625e-014 2.22639e-014
lhumerus 21.8704 -22.8958 86.4465
lradius 115.197
lwrist -4.94643
lhand -11.6672 7.95008
lfingers 7.12502
lthumb 14.3777 37.4321
rfemur -66.5444 -28.816 11.3713
rtibia 96.664
rfoot -29.8061 10.2438
rtoes -32.1386
lfemur -65.3017 22.4222 11.7707
ltibia 78.9936
lfoot -23.8764 -25.3622
ltoes -35.5587
2255
root 0.549284 12.8451 -8.57287 20.3869 2.5083 -4.32749
lowerback 28.1718 0.354441 -12.8198
upperback 6.83958 -3.66063 -6.01034
thorax -7.40609 -1.55226 1.77761
lowerneck -22.8213 -6.68893 -15.7159
upperneck 7.9613 -7.6353 21.7182
head 7.81663 -2.37595 9.05467
rclavicle 2.22639e-014 -2.06736e-014
rhumerus -14.6797 -16.1498 -71.0132
rradius 118.111
rwrist -12.8458
rhand -30.55 25.5206
rfingers 7.12502
rthumb -3.84857 -4.42435
lclavicle 2.22639e-014 -2.06736e-014
lhumerus 21.9826 -23.6862 87.2091
lradius 114.288
lwrist -5.16867
lhand -11.5468 7.72653
lfingers 7.12502
lthumb 14.4937 37.2003
rfemur -66.2873 -29.3101 11.4594
rtibia 97.1127
rfoot -30.0373 10.1716
rtoes -32.4107
lfemur -66.1619 22.4734 11.6917
ltibia 79.4054
lfoot -24.6824 -25.1515
ltoes -34.421
2256
root 0.581107 12.8092 -8.54681 20.3863 3.35067 -4.65764
lowerback 28.3764 0.381627 -13.2365
upperback 6.75584 -3.79823 -6.17844
thorax -7.56675 -1.59454 1.86552
lowerneck -22.3595 -6.78859 -15.6613
upperneck 7.66243 -7.85777 22.0041
head 7.70798 -2.49163 9.10417
rclavicle 4.45278e-014 6.04305e-014
rhumerus -16.4733 -16.2093 -71.5376
rradius 117.806
rwrist -12.051
rhand -30.3545 25.6837
rfingers 7.12502
rthumb -3.6598 -4.26459
lclavicle 4.45278e-014 6.04305e-014
lhumerus 22.027 -24.4236 87.9436
lradius 113.302
lwrist -5.97094
lhand -11.4829 6.99168
lfingers 7.12502
lthumb 14.5553 36.461
rfemur -65.9194 -29.6467 11.5055
rtibia 97.4017
rfoot -30.1919 9.98539
rtoes -32.5835
lfemur -66.9943 22.5351 11.4601
ltibia 79.859
lfoot -25.4326 -24.4276
ltoes -33.9235
2257
root 0.614012 12.7859 -8.51817 20.4025 4.18328 -4.9224
lowerback 28.4372 0.349322 -13.5775
upperback 6.76031 -3.95877 -6.41226
thorax -7.56265 -1.66061 1.84074
lowerneck -22.1298 -6.84703 -15.6385
upperneck 7.40236 -8.02382 22.5247
head 7.65944 -2.55098 9.26234
rclavicle 1.11319e-013 1.01778e-013
rhumerus -18.1559 -16.1605 -72.1535
rradius 117.573
rwrist -11.6514
rhand -30.3208 25.9625
rfingers 7.12502
rthumb -3.62729 -3.98636
lclavicle 1.11319e-013 1.01778e-013
lhumerus 22.1687 -25.1696 88.3965
lradius 112.511
lwrist -7.10346
lhand -11.629 6.51986
lfingers 7.12502
lthumb 14.4145 35.9993
rfemur -65.534 -29.9293 11.5297
rtibia 97.5973
rfoot -30.2884 9.53828
rtoes -33.6653
lfemur -67.8105 22.3783 11.246
ltibia 80.3025
lfoot -26.1055 -23.4584
ltoes -34.0344
2258
root 0.646473 12.773 -8.48928 20.411 5.07458 -5.09553
lowerback 28.454 0.282421 -14.0061
upperback 6.81757 -4.15832 -6.53542
thorax -7.45252 -1.75116 1.99857
lowerneck -22.1557 -6.94432 -15.9333
upperneck 7.24057 -8.15272 23.1895
head 7.70315 -2.57619 9.54768
rclavicle -4.77083e-014 -5.40694e-014
rhumerus -19.5018 -15.832 -72.5981
rradius 117.158
rwrist -11.7286
rhand -30.4151 26.4201
rfingers 7.12502
rthumb -3.71833 -3.52724
lclavicle -4.77083e-014 -5.40694e-014
lhumerus 22.2936 -25.7555 88.8683
lradius 112.04
lwrist -8.09107
lhand -11.467 6.63783
lfingers 7.12502
lthumb 14.5706 36.1061
rfemur -65.0929 -30.2556 11.4861
rtibia 97.7271
rfoot -30.2961 9.09161
rtoes -34.6818
lfemur -68.5123 21.8678 11.1501
ltibia 80.6343
lfoot -26.7006 -22.5324
ltoes -34.2182
2259
root 0.673314 12.7698 -8.46321 20.481 5.84847 -5.30866
lowerback 28.3932 0.345939 -14.6064
upperback 6.86637 -4.21773 -6.54852
thorax -7.30402 -1.77757 2.32502
lowerneck -22.177 -7.1155 -16.1
upperneck 6.9796 -8.36894 23.613
head 7.71159 -2.66041 9.69841
rclavicle -7.31528e-014 -1.08139e-013
rhumerus -20.5224 -15.5898 -73.0109
rradius 116.61
rwrist -12.1378
rhand -30.0657 26.0035
rfingers 7.12502
rthumb -3.38095 -3.94941
lclavicle -7.31528e-014 -1.08139e-013
lhumerus 22.4975 -26.356 89.2368
lradius 111.702
lwrist -8.69601
lhand -11.1897 6.68826
lfingers 7.12502
lthumb 14.8378 36.137
rfemur -64.7638 -30.4036 11.5228
rtibia 97.8253
rfoot -30.2899 8.71183
rtoes -35.0267
lfemur -69.0028 21.354 11.2977
ltibia 80.8105
lfoot -27.2709 -21.9514
ltoes -34.5726
2260
root 0.697336 12.7754 -8.4387 20.5706 6.56209 -5.58368
lowerback 28.3063 0.402895 -15.2235
upperback 6.84338 -4.28872 -6.48583
thorax -7.21419 -1.80442 2.74838
lowerneck -21.9229 -7.21096 -16.2107
upperneck 6.61894 -8.48621 23.8658
head 7.60517 -2.72783 9.78272
rclavicle 1.59028e-014 -3.18055e-015
rhumerus -21.4391 -15.2402 -73.4026
rradius 116.154
rwrist -12.7699
rhand -29.5217 24.6694
rfingers 7.12502
rthumb -2.85553 -5.29123
lclavicle 1.59028e-014 -3.18055e-015
lhumerus 22.5389 -26.811 89.5741
lradius 111.505
lwrist -9.07958
lhand -11.1421 6.39732
lfingers 7.12502
lthumb 14.8836 35.8427
rfemur -64.5036 -30.4367 11.6684
rtibia 97.8812
rfoot -30.135 8.24903
rtoes -35.1524
lfemur -69.3251 20.8144 11.7239
ltibia 80.8433
lfoot -27.5365 -21.7933
ltoes -35.0011
2261
root 0.720163 12.7909 -8.40643 20.4985 7.09362 -5.94265
lowerback 28.2827 0.614539 -15.6934
upperback 6.83806 -4.14466 -6.4904
thorax -7.1862 -1.73076 2.94935
lowerneck -21.7868 -7.39069 -16.1857
upperneck 6.40126 -8.76877 24.1001
head 7.59416 -2.86131 9.81337
rclavicle 3.49861e-014 1.27222e-014
rhumerus -22.517 -15.212 -73.8136
rradius 115.902
rwrist -13.4665
rhand -29.4791 24.1498
rfingers 7.12502
rthumb -2.81444 -5.81142
lclavicle 3.49861e-014 1.27222e-014
lhumerus 22.4589 -27.5605 89.7995
lradius 111.446
lwrist -9.1751
lhand -11.2079 6.19806
lfingers 7.12502
lthumb 14.8202 35.6481
rfemur -64.0834 -30.2371 11.8239
rtibia 97.843
rfoot -29.8517 7.84823
rtoes -35.1052
lfemur -69.3254 20.362 12.3296
ltibia 80.7645
lfoot -27.5236 -22.033
ltoes -35.2768
2262
root 0.744378 12.8157 -8.36697 20.3708 7.53545 -6.4562
lowerback 28.1808 0.793811 -16.0702
upperback 6.72682 -4.007 -6.36993
thorax -7.24208 -1.65343 3.24291
lowerneck -21.4303 -7.46273 -16.4363
upperneck 6.2282 -8.84709 24.2933
head 7.52337 -2.92039 9.91459
rclavicle -7.31528e-014 -3.18055e-014
rhumerus -23.556 -14.8328 -74.129
rradius 115.666
rwrist -14.2339
rhand -29.9347 24.5752
rfingers 7.12502
rthumb -3.2544 -5.37974
lclavicle -7.31528e-014 -3.18055e-014
lhumerus 22.2311 -27.9848 90.1212
lradius 111.581
lwrist -8.65423
lhand -10.6211 6.36655
lfingers 7.12502
lthumb 15.3855 35.7741
rfemur -63.5648 -29.8647 12.0934
rtibia 97.7004
rfoot -29.5021 7.49689
rtoes -34.9467
lfemur -69.2342 20.034 13.0109
ltibia 80.6294
lfoot -27.5423 -22.3805
ltoes -34.8866
